{"title":"Bajrangi Bhaijaan (2015) x264 pDVDRip AAC[HDMaN ExCluSive]","uid":12137051,"size":857088219,"categoryP":"video","categoryS":"hd___movies","magnet":"?xt=urn:btih:0653b2aec1e2b7f22b6b825d4cfa62d5d876a4f3&amp;dn=Bajrangi+Bhaijaan+%282015%29+x264+pDVDRip+AAC%5BHDMaN+ExCluSive%5D&amp;tr=udp%3A%2F%2Ftracker.openbittorrent.com%3A80&amp;tr=udp%3A%2F%2Fopen.demonii.com%3A1337&amp;tr=udp%3A%2F%2Ftracker.coppersurfer.tk%3A6969&amp;tr=udp%3A%2F%2Fexodus.desync.com%3A6969","seeders":10,"leechers":0,"uploader":"Urmit","files":11,"time":1437228562,"description":"[center][img]http://www.bollywoodtabloid.com/wp-content/uploads/2015/06/CHw-NQzUwAAyF_S.jpg[/img]\n\n[size=6][color=blue][b]Bajrangi Bhaijaan (2015) x264 pDVDRip AAC[HDMaN ExCluSive][/b][/color][/size]\n\n[code]Format                      : Matroska\nFormat version              : Version 4 / Version 2\nFile size                   : 817 MiB\nDuration                    : 2h 34mn\nOverall bit rate            : 740 Kbps\nMovie name                  : -=HDMaN=-\nEncoded date                : UTC 2015-07-18 11:49:42\nWriting application         : mkvmerge v6.1.0 ('Old Devil') built on Mar  2 2013 14:32:37\nWriting library             : libebml v1.3.0 + libmatroska v1.4.0\n\n[ * Video ]\nID                          : 1\nFormat                      : AVC\nFormat/Info                 : Advanced Video Codec\nFormat profile              : &lt;a class=&quot;__cf_email__&quot; href=&quot;/cdn-cgi/l/email-protection&quot; data-cfemail=&quot;4109282629010d736f70&quot;&gt;[email&amp;#160;protected]&lt;/a&gt;&lt;script data-cfhash='f9e31' type=&quot;text/javascript&quot;&gt;\n/* &lt;![CDATA[ */!function(){try{var t=&quot;currentScript&quot;in document?document.currentScript:function(){for(var t=document.getElementsByTagName(&quot;script&quot;),e=t.length;e--;)if(t[e].getAttribute(&quot;data-cfhash&quot;))return t[e]}();if(t&amp;&amp;t.previousSibling){var e,r,n,i,c=t.previousSibling,a=c.getAttribute(&quot;data-cfemail&quot;);if(a){for(e=&quot;&quot;,r=parseInt(a.substr(0,2),16),n=2;a.length-n;n+=2)i=parseInt(a.substr(n,2),16)^r,e+=String.fromCharCode(i);e=document.createTextNode(e),c.parentNode.replaceChild(e,c)}t.parentNode.removeChild(t);}}catch(u){}}()/* ]]&gt; */&lt;/script&gt;\nFormat settings, CABAC      : Yes\nFormat settings, ReFrames   : 4 frames\nCodec ID                    : V_MPEG4/ISO/AVC\nDuration                    : 2h 34mn\nBit rate                    : 533 Kbps\nWidth                       : 640 pixels\nHeight                      : 276 pixels\nDisplay aspect ratio        : 2.35:1\nFrame rate mode             : Constant\nFrame rate                  : 25.000 fps\nColor space                 : YUV\nChroma subsampling          : 4:2:0\nBit depth                   : 8 bits\nScan type                   : Progressive\nBits/(Pixel*Frame)          : 0.121\nStream size                 : 589 MiB (72%)\nWriting library             : x264 core 146 r2538 121396c\nDefault                     : Yes\nForced                      : No\n\n[ * Audio ]\nID                          : 2\nFormat                      : MPEG Audio\nFormat version              : Version 1\nFormat profile              : Layer 3\nMode                        : Joint stereo\nCodec ID                    : A_MPEG/L3\nCodec ID/Hint               : MP3\nDuration                    : 2h 34mn\nBit rate mode               : Constant\nBit rate                    : 192 Kbps\nChannel(s)                  : 2 channels\nSampling rate               : 48.0 KHz\nCompression mode            : Lossy\nStream size                 : 212 MiB (26%)\nWriting library             : LAME3.99r\nEncoding settings           : -m j -V 4 -q 2 -lowpass 18.6 -b 192\nDefault                     : Yes\nForced                      : No\n\nNote: &quot;JPEG&quot; less quality, don't judge by this.[/code]\n\n\n[img]http://i.imgur.com/97gElph.jpg[/img]\n[img]http://i.imgur.com/QYHmPNq.jpg[/img]\n[img]http://i.imgur.com/mhvn2A0.jpg[/img]\n[img]http://i.imgur.com/QYHmPNq.jpg[/img][/center]","torrent":{"xt":"urn:btih:0653b2aec1e2b7f22b6b825d4cfa62d5d876a4f3","amp;dn":"Bajrangi+Bhaijaan+%282015%29+x264+pDVDRip+AAC%5BHDMaN+ExCluSive%5D","amp;tr":["udp%3A%2F%2Ftracker.openbittorrent.com%3A80","udp%3A%2F%2Fopen.demonii.com%3A1337","udp%3A%2F%2Ftracker.coppersurfer.tk%3A6969","udp%3A%2F%2Fexodus.desync.com%3A6969"],"infoHash":"0653b2aec1e2b7f22b6b825d4cfa62d5d876a4f3","infoHashBuffer":{"type":"Buffer","data":[6,83,178,174,193,226,183,242,43,107,130,93,76,250,98,213,216,118,164,243]},"announce":[],"urlList":[]}}